<svg xmlns="http://www.w3.org/2000/svg" width="350" height="328" viewBox="0 0 350 328">
  <g id="Group_1" data-name="Group 1" transform="translate(-785 -285)" style="isolation: isolate">
    <path id="Polygon_2" data-name="Polygon 2" d="M157.354,33.073a20,20,0,0,1,35.291,0L334.306,298.585A20,20,0,0,1,316.661,328H33.339a20,20,0,0,1-17.646-29.415Z" transform="translate(1135 613) rotate(180)" fill="rgba(147,247,247,0.77)" opacity="0.74" style="mix-blend-mode: hard-light;isolation: isolate"/>
    <g id="Polygon_1" data-name="Polygon 1" transform="translate(1098 565) rotate(180)" fill="rgba(238,254,254,0.77)">
      <path d="M 262.7815856933594 262 L 18.21842384338379 262 C 16.06646156311035 262 14.19434642791748 260.9434509277344 13.08203887939453 259.1012268066406 C 11.96976947784424 257.2590637207031 11.90657711029053 255.1103057861328 12.90869235992432 253.2059478759766 L 135.1902618408203 20.82741546630859 C 135.7377319335938 19.78703117370605 136.5039978027344 18.9773006439209 137.4677276611328 18.42076110839844 C 138.3732299804688 17.89787673950195 139.4217681884766 17.62149238586426 140.5 17.62149238586426 C 141.5781860351563 17.62149238586426 142.6267242431641 17.89787673950195 143.5322265625 18.42076110839844 C 144.4960021972656 18.9773006439209 145.2622680664063 19.78703117370605 145.8097381591797 20.82741546630859 L 268.09130859375 253.2059478759766 C 269.0934143066406 255.1103057861328 269.0302429199219 257.2590637207031 267.91796875 259.1012268066406 C 266.8056640625 260.9434509277344 264.9335327148438 262 262.7815856933594 262 Z" stroke="none"/>
      <path d="M 140.5 22.6214599609375 C 139.8962249755859 22.6214599609375 139.7063140869141 22.98237609863281 139.6150512695313 23.15577697753906 L 17.33346557617188 255.5343322753906 L 8.483917236328125 250.8775634765625 L 18.21841430664063 257 L 262.7815856933594 257 L 263.6665344238281 255.5343322753906 L 141.3849945068359 23.15586853027344 C 141.2937316894531 22.982421875 141.1037750244141 22.6214599609375 140.5 22.6214599609375 M 140.4999847412109 12.6214599609375 C 144.3362731933594 12.6214599609375 148.1725616455078 14.58065795898438 150.2344970703125 18.4990234375 L 272.5160827636719 250.8775634765625 C 276.37060546875 258.2025146484375 271.0588073730469 267 262.7815856933594 267 L 18.21841430664063 267 C 9.941131591796875 267 4.62939453125 258.2025146484375 8.483917236328125 250.8775634765625 L 130.7655029296875 18.4990234375 C 132.8274078369141 14.58065795898438 136.6636962890625 12.6214599609375 140.4999847412109 12.6214599609375 Z" stroke="none" fill="#1b4e5f"/>
    </g>
    <g id="Path_1" data-name="Path 1" transform="translate(1022.409 483.136) rotate(180)" fill="#fff">
      <path d="M 120.0418853759766 132.8636322021484 L 5.463483333587646 132.8636322021484 L 62.75266647338867 8.372325897216797 L 120.0418853759766 132.8636322021484 Z" stroke="none"/>
      <path d="M 62.75266265869141 16.74456787109375 L 10.92692565917969 129.3636169433594 L 114.5784454345703 129.3636169433594 L 62.75266265869141 16.74456787109375 M 62.75266265869141 0 L 125.5053787231445 136.3636169433594 L -7.62939453125e-06 136.3636169433594 L 62.75266265869141 0 Z" stroke="none" fill="#1b4e5f"/>
    </g>
    <line id="Line_1" data-name="Line 1" x2="74" y2="45" transform="translate(830.5 308.5)" fill="none" stroke="#1b4e5f" stroke-width="10"/>
    <line id="Line_2" data-name="Line 2" y1="45" x2="72" transform="translate(1014.5 308.5)" fill="none" stroke="#1b4e5f" stroke-width="10"/>
    <line id="Line_3" data-name="Line 3" y2="79" transform="translate(960.5 469.5)" fill="none" stroke="#1b4e5f" stroke-width="10"/>
    <path id="Path_2" data-name="Path 2" d="M384.475,849.6,352.6,877.76h40l-35,23.594" transform="translate(588.8 -486.4)" fill="none" stroke="#1b4e5f" stroke-width="10"/>
  </g>
</svg>
