<svg xmlns="http://www.w3.org/2000/svg" xmlns:xlink="http://www.w3.org/1999/xlink" width="388" height="377" viewBox="0 0 388 377"><defs><filter id="a" x="0" y="0" width="388" height="377" filterUnits="userSpaceOnUse"><feOffset dy="3" input="SourceAlpha"/><feGaussianBlur stdDeviation="3" result="b"/><feFlood flood-color="#c2fafa"/><feComposite operator="in" in2="b"/><feComposite in="SourceGraphic"/></filter><filter id="c" x="6" y="6" width="376" height="365" filterUnits="userSpaceOnUse"><feOffset dy="3" input="SourceAlpha"/><feGaussianBlur stdDeviation="3" result="d"/><feFlood flood-color="#1b4e5f" flood-opacity="0.949"/><feComposite operator="in" in2="d"/><feComposite in="SourceGraphic"/></filter></defs><g transform="translate(-762.733 -264.467)" opacity="0.76" style="isolation:isolate"><g transform="matrix(1, 0, 0, 1, 762.73, 264.47)" filter="url(#a)" style="mix-blend-mode:hard-light;isolation:isolate"><path d="M161.226,34.457a20,20,0,0,1,35.549,0L342.953,317.831A20,20,0,0,1,325.179,347H32.821a20,20,0,0,1-17.774-29.169Z" transform="translate(373 359) rotate(180)" fill="#1b4e5f"/></g><g transform="matrix(1, 0, 0, 1, 762.73, 264.47)" filter="url(#c)" style="mix-blend-mode:hard-light;isolation:isolate"><g transform="translate(373 359) rotate(180)" fill="#e5fafa"><path d="M161.226,34.457a20,20,0,0,1,35.549,0L342.953,317.831A20,20,0,0,1,325.179,347H32.821a20,20,0,0,1-17.774-29.169Z" stroke="none"/><path d="M 179 24.62554931640625 C 175.5949096679688 24.62554931640625 172.2678680419922 25.514892578125 169.3784942626953 27.19744873046875 C 166.3084564208984 28.9852294921875 163.7965393066406 31.65396118164063 162.1143188476563 34.9150390625 L 15.935546875 318.2894897460938 C 14.35745239257813 321.3486328125 13.64553833007813 324.5997314453125 13.819580078125 327.9525451660156 C 13.98208618164063 331.0830688476563 14.94223022460938 334.1724853515625 16.59622192382813 336.8868408203125 C 18.25027465820313 339.6012268066406 20.55572509765625 341.870849609375 23.26339721679688 343.450439453125 C 26.163330078125 345.1422119140625 29.37905883789063 346 32.82122802734375 346 L 325.1787109375 346 C 328.6209106445313 346 331.8366394042969 345.1422119140625 334.7365417480469 343.4505004882813 C 337.4442138671875 341.870849609375 339.7496948242188 339.6012268066406 341.4037170410156 336.8868408203125 C 343.0577392578125 334.1725463867188 344.0179138183594 331.0830688476563 344.1803588867188 327.9525451660156 C 344.3544006347656 324.5997314453125 343.6424865722656 321.3486328125 342.064453125 318.2894897460938 L 195.8856811523438 34.9150390625 C 194.2034606933594 31.65396118164063 191.6914978027344 28.9852294921875 188.6215057373047 27.19744873046875 C 185.7321319580078 25.514892578125 182.4050903320313 24.62554931640625 179 24.62554931640625 M 179 23.62551879882813 C 186.0248107910156 23.62551879882813 193.0496063232422 27.23587036132813 196.7744140625 34.45657348632813 L 342.9531860351563 317.8310546875 C 349.8197631835938 331.1422729492188 340.1566772460938 347 325.1787109375 347 L 32.82122802734375 347 C 17.84326171875 347 8.18017578125 331.1422729492188 15.04681396484375 317.8310546875 L 161.2255859375 34.45657348632813 C 164.9503936767578 27.23587036132813 171.9751892089844 23.62551879882813 179 23.62551879882813 Z" stroke="none" fill="rgba(82,254,254,0.77)"/></g></g><g transform="translate(1103.733 589.467) rotate(180)" fill="#c2fafa"><path d="M 278.719970703125 281 L 16.28000450134277 281 L 147.4999847412109 22.11842346191406 L 278.719970703125 281 Z" stroke="none"/><path d="M 147.4999694824219 44.23687744140625 L 32.55996704101563 270.9999694824219 L 262.4400024414063 270.9999694824219 L 147.4999694824219 44.23687744140625 M 147.4999694824219 9.694732666015625 C 150.3272705078125 9.694732666015625 153.1545562744141 11.15579223632813 154.6356658935547 14.077880859375 L 289.1116638183594 279.3830871582031 C 291.8091125488281 284.7047424316406 287.9422912597656 290.9999694824219 281.9760131835938 290.9999694824219 L 13.02398681640625 290.9999694824219 C 7.057708740234375 290.9999694824219 3.190887451171875 284.7047424316406 5.888275146484375 279.3830871582031 L 140.3642730712891 14.077880859375 C 141.8453826904297 11.15579223632813 144.6726837158203 9.694732666015625 147.4999694824219 9.694732666015625 Z" stroke="none" fill="#1b4e5f"/></g><g transform="translate(1020.911 480.104) rotate(180)" fill="#fff"><path d="M 120.0418853759766 132.8636322021484 L 5.463483333587646 132.8636322021484 L 62.75266647338867 8.372325897216797 L 120.0418853759766 132.8636322021484 Z" stroke="none"/><path d="M 62.75266265869141 16.74456787109375 L 10.92692565917969 129.3636169433594 L 114.5784454345703 129.3636169433594 L 62.75266265869141 16.74456787109375 M 62.75266265869141 0 L 125.5053787231445 136.3636169433594 L -7.62939453125e-06 136.3636169433594 L 62.75266265869141 0 Z" stroke="none" fill="#01080a"/></g><line x2="81.4" y2="45.133" transform="translate(830.5 308.5)" fill="none" stroke="#1b4e5f" stroke-width="10"/><line y1="45" x2="72" transform="translate(1012.167 308.5)" fill="none" stroke="#1b4e5f" stroke-width="10"/><line x1="2.776" y2="104.143" transform="translate(956.468 461.937)" fill="none" stroke="#1b4e5f" stroke-width="10"/><path d="M384.475,849.6,352.6,877.76h40l-35,23.594" transform="translate(587.375 -489.146)" fill="none" stroke="#1b4e5f" stroke-width="10"/><g transform="translate(890.964 340.074)" fill="#1b4e5f"><path d="M 12.5 24.5 C 9.294679641723633 24.5 6.281219959259033 23.25177955627441 4.01471996307373 20.98527908325195 C 1.748219966888428 18.71878051757813 0.5 15.70532035827637 0.5 12.5 C 0.5 9.294679641723633 1.748219966888428 6.281219959259033 4.01471996307373 4.01471996307373 C 6.281219959259033 1.748219966888428 9.294679641723633 0.5 12.5 0.5 C 15.70532035827637 0.5 18.71878051757813 1.748219966888428 20.98527908325195 4.01471996307373 C 23.25177955627441 6.281219959259033 24.5 9.294679641723633 24.5 12.5 C 24.5 15.70532035827637 23.25177955627441 18.71878051757813 20.98527908325195 20.98527908325195 C 18.71878051757813 23.25177955627441 15.70532035827637 24.5 12.5 24.5 Z" stroke="none"/><path d="M 12.5 1 C 9.428239822387695 1 6.54033088684082 2.196210861206055 4.368270874023438 4.368270874023438 C 2.196210861206055 6.54033088684082 1 9.428239822387695 1 12.5 C 1 15.5717601776123 2.196210861206055 18.45967102050781 4.368270874023438 20.63172912597656 C 6.54033088684082 22.80379104614258 9.428239822387695 24 12.5 24 C 15.5717601776123 24 18.45967102050781 22.80379104614258 20.63172912597656 20.63172912597656 C 22.80379104614258 18.45967102050781 24 15.5717601776123 24 12.5 C 24 9.428239822387695 22.80379104614258 6.54033088684082 20.63172912597656 4.368270874023438 C 18.45967102050781 2.196210861206055 15.5717601776123 1 12.5 1 M 12.5 0 C 19.40356063842773 0 25 5.596439361572266 25 12.5 C 25 19.40356063842773 19.40356063842773 25 12.5 25 C 5.596439361572266 25 0 19.40356063842773 0 12.5 C 0 5.596439361572266 5.596439361572266 0 12.5 0 Z" stroke="none" fill="#fff"/></g><g transform="translate(1006.733 339.467)" fill="#1b4e5f" stroke="#fff" stroke-width="1"><circle cx="12.5" cy="12.5" r="12.5" stroke="none"/><circle cx="12.5" cy="12.5" r="12" fill="none"/></g><g transform="translate(947.733 455.467)" fill="#1b4e5f"><path d="M 12.5 24.5 C 9.294679641723633 24.5 6.281219959259033 23.25177955627441 4.01471996307373 20.98527908325195 C 1.748219966888428 18.71878051757813 0.5 15.70532035827637 0.5 12.5 C 0.5 9.294679641723633 1.748219966888428 6.281219959259033 4.01471996307373 4.01471996307373 C 6.281219959259033 1.748219966888428 9.294679641723633 0.5 12.5 0.5 C 15.70532035827637 0.5 18.71878051757813 1.748219966888428 20.98527908325195 4.01471996307373 C 23.25177955627441 6.281219959259033 24.5 9.294679641723633 24.5 12.5 C 24.5 15.70532035827637 23.25177955627441 18.71878051757813 20.98527908325195 20.98527908325195 C 18.71878051757813 23.25177955627441 15.70532035827637 24.5 12.5 24.5 Z" stroke="none"/><path d="M 12.5 1 C 9.428239822387695 1 6.54033088684082 2.196210861206055 4.368270874023438 4.368270874023438 C 2.196210861206055 6.54033088684082 1 9.428239822387695 1 12.5 C 1 15.5717601776123 2.196210861206055 18.45967102050781 4.368270874023438 20.63172912597656 C 6.54033088684082 22.80379104614258 9.428239822387695 24 12.5 24 C 15.5717601776123 24 18.45967102050781 22.80379104614258 20.63172912597656 20.63172912597656 C 22.80379104614258 18.45967102050781 24 15.5717601776123 24 12.5 C 24 9.428239822387695 22.80379104614258 6.54033088684082 20.63172912597656 4.368270874023438 C 18.45967102050781 2.196210861206055 15.5717601776123 1 12.5 1 M 12.5 0 C 19.40356063842773 0 25 5.596439361572266 25 12.5 C 25 19.40356063842773 19.40356063842773 25 12.5 25 C 5.596439361572266 25 0 19.40356063842773 0 12.5 C 0 5.596439361572266 5.596439361572266 0 12.5 0 Z" stroke="none" fill="#fff"/></g></g></svg>